<?xml version="1.0" encoding="UTF-8" standalone="no"?>
<!-- Created with Inkscape (http://www.inkscape.org/) -->

<svg
   xmlns:dc="http://purl.org/dc/elements/1.1/"
   xmlns:cc="http://creativecommons.org/ns#"
   xmlns:rdf="http://www.w3.org/1999/02/22-rdf-syntax-ns#"
   xmlns:svg="http://www.w3.org/2000/svg"
   xmlns="http://www.w3.org/2000/svg"
   xmlns:sodipodi="http://sodipodi.sourceforge.net/DTD/sodipodi-0.dtd"
   xmlns:inkscape="http://www.inkscape.org/namespaces/inkscape"
   width="137.06052mm"
   height="163.83327mm"
   viewBox="0 0 485.6475 580.51157"
   id="svg2"
   version="1.1"
   inkscape:version="0.91 r13725"
   sodipodi:docname="live555.svg">
  <defs
     id="defs4" />
  <sodipodi:namedview
     id="base"
     pagecolor="#ffffff"
     bordercolor="#666666"
     borderopacity="1.0"
     inkscape:pageopacity="0.0"
     inkscape:pageshadow="2"
     inkscape:zoom="0.69545537"
     inkscape:cx="33.177693"
     inkscape:cy="346.87336"
     inkscape:document-units="px"
     inkscape:current-layer="layer1"
     showgrid="false"
     inkscape:window-width="1920"
     inkscape:window-height="1007"
     inkscape:window-x="0"
     inkscape:window-y="0"
     inkscape:window-maximized="1"
     fit-margin-top="0"
     fit-margin-left="0"
     fit-margin-right="0"
     fit-margin-bottom="0" />
  <metadata
     id="metadata7">
    <rdf:RDF>
      <cc:Work
         rdf:about="">
        <dc:format>image/svg+xml</dc:format>
        <dc:type
           rdf:resource="http://purl.org/dc/dcmitype/StillImage" />
        <dc:title></dc:title>
      </cc:Work>
    </rdf:RDF>
  </metadata>
  <g
     inkscape:label="Layer 1"
     inkscape:groupmode="layer"
     id="layer1"
     transform="translate(-263.46245,-380.50434)">
    <g
       id="g4283"
       transform="translate(920.26035,345.09763)">
      <path
         id="path4277"
         d="m -319.04688,315.55288 c -57.26849,0 -70.77643,1.10905 -95.24218,7.8164 -31.11976,8.53156 -52.65235,22.17801 -52.65235,33.36914 0,2.50519 -0.0579,4.09705 -0.78515,4.73633 l 0.48633,0.59375 c 0.3049,0.37209 0.69463,1.0306 0.875,1.47656 l 0.22851,0.56446 10.36524,7.8164 c 7.13549,5.38098 25.80237,13.30088 41.48242,17.59961 24.46575,6.70734 37.9737,7.81641 95.24218,7.81641 57.26851,0 70.77645,-1.10907 95.24219,-7.81641 30.83152,-8.45253 52.6543,-22.16122 52.6543,-33.07812 0,-10.91691 -21.82278,-24.6256 -52.6543,-33.07813 -24.46574,-6.70735 -37.97368,-7.8164 -95.24219,-7.8164 z"
         style="fill:#cc0000;fill-opacity:1"
         inkscape:connector-curvature="0" />
      <path
         id="path4247"
         d="m -496.22461,349.67788 c -2.10825,-0.0424 -3.90454,0.56136 -5.7793,1.73437 -11.83793,7.40689 -13.2315,23.48425 -5.25,60.54883 13.93685,64.71999 79.54076,183.359 110.65235,200.10352 12.10865,6.51699 22.88887,4.69807 29.19336,-4.92383 4.76633,-7.27443 5.4107,-13.73088 3.3164,-33.28711 -2.96269,-27.66533 -18.50254,-77.94088 -32.83593,-106.23242 -9.8437,-19.42969 -43.54838,-70.1174 -61.83789,-92.9961 l -6.31055,-7.89258 0.01,0.0234 c 0.18037,0.44597 0.0803,0.5049 -0.22461,0.13281 l -4.08398,-4.98242 c -0.0498,-0.0608 -0.10509,-0.15849 -0.1582,-0.23242 -1.99327,-0.47193 -5.51186,-2.43955 -11.75782,-6.01953 -7.04233,-4.03645 -11.41984,-5.90589 -14.93359,-5.97656 z"
         style="fill:#7d7d7d;fill-opacity:1"
         inkscape:connector-curvature="0" />
      <path
         id="path4270"
         d="m -638.95117,79.3771 c -6.16606,0.08022 -11.15094,3.41896 -14.70899,10.16992 -6.36297,12.07293 -3.15569,35.97034 10.60352,79.01367 21.24726,66.46838 72.1356,150.61514 103.25391,170.73437 14.04699,9.08194 25.32507,8.07865 30.23046,-2.6875 1.40598,-3.08578 3.07845,-5.81966 4.4668,-7.44726 l 0,-27.0625 c -0.95266,-0.84124 -1.51562,-4.06281 -1.51562,-9.94727 0,-22.89559 -38.52768,-111.60277 -66.07618,-152.13476 -27.03091,-39.77046 -50.49619,-60.8437 -66.2539,-60.63867 z"
         style="fill:#7d7d7d;fill-opacity:1"
         inkscape:connector-curvature="0" />
      <path
         id="path4243"
         d="m -370.37891,79.51772 c -1.48378,0.03873 -3.042,0.27107 -4.70117,0.6875 -11.55515,2.90015 -37.13509,28.73332 -56.08789,56.64258 -24.23586,35.68887 -56.61557,105.68317 -63.31836,136.875 -3.48876,16.23516 -6.92828,26.17322 -9.25,28.21094 l 0,25.95117 c 0.26922,-0.17478 0.5189,-0.29492 0.72266,-0.29492 1.34705,0 4.2987,4.05766 6.55859,9.01757 4.53997,9.96416 15.41592,11.65406 28.19141,4.38086 9.71835,-5.53275 39.7212,-41.53451 56.25781,-67.50586 32.49382,-51.03269 54.43497,-109.50324 58.88086,-156.91406 2.12246,-22.63396 1.59634,-25.95187 -5.07812,-31.99219 -3.93065,-3.55717 -7.72443,-5.17477 -12.17579,-5.05859 z"
         style="fill:#cc0000;fill-opacity:1"
         inkscape:connector-curvature="0" />
      <path
         sodipodi:nodetypes="ssssss"
         inkscape:connector-curvature="0"
         id="path4235"
         d="m -524.93461,93.399424 c -7.80636,-7.80635 -10.54413,-13.96634 -10.54413,-23.72429 0,-18.32738 15.94104,-34.26842 34.26843,-34.26842 18.32737,0 34.2684,15.94104 34.2684,34.26842 0,18.32738 -15.94103,34.268416 -34.2684,34.268416 -9.75794,0 -15.91794,-2.73777 -23.7243,-10.544126 z"
         style="fill:#7d7d7d;fill-opacity:1" />
    </g>
  </g>
</svg>
